<mxfile host="app.diagrams.net" modified="2023-02-28T09:54:35.325Z" agent="5.0 (Windows NT 10.0; Win64; x64) AppleWebKit/537.36 (KHTML, like Gecko) Chrome/100.0.4896.127 Safari/537.36" etag="uD2G8clIiFRhD7GHXI5K" version="20.8.23" type="github">
  <diagram name="第 1 页" id="eFnEZ1ACVftLKxrpcX3y">
    <mxGraphModel dx="988" dy="509" grid="1" gridSize="10" guides="1" tooltips="1" connect="1" arrows="1" fold="1" page="1" pageScale="1" pageWidth="827" pageHeight="1169" math="0" shadow="0">
      <root>
        <mxCell id="0" />
        <mxCell id="1" parent="0" />
        <mxCell id="eVXDq6Tb_Z_STfx86WKF-1" value="" style="rounded=0;whiteSpace=wrap;html=1;fillColor=none;dashed=1;strokeWidth=2;" vertex="1" parent="1">
          <mxGeometry x="170" y="190" width="400" height="80" as="geometry" />
        </mxCell>
        <mxCell id="eVXDq6Tb_Z_STfx86WKF-4" value="通信指纹变换" style="rounded=0;whiteSpace=wrap;html=1;strokeWidth=2;fillColor=none;fontSize=14;" vertex="1" parent="1">
          <mxGeometry x="200" y="212.5" width="120" height="35" as="geometry" />
        </mxCell>
        <mxCell id="eVXDq6Tb_Z_STfx86WKF-8" value="动态变换配置" style="rounded=0;whiteSpace=wrap;html=1;strokeWidth=2;fillColor=none;fontSize=14;" vertex="1" parent="1">
          <mxGeometry x="360" y="212.5" width="120" height="35" as="geometry" />
        </mxCell>
        <mxCell id="eVXDq6Tb_Z_STfx86WKF-9" value="变换层" style="text;html=1;strokeColor=none;fillColor=none;align=center;verticalAlign=middle;whiteSpace=wrap;rounded=0;fontSize=14;" vertex="1" parent="1">
          <mxGeometry x="500" y="215" width="60" height="30" as="geometry" />
        </mxCell>
        <mxCell id="eVXDq6Tb_Z_STfx86WKF-10" value="" style="rounded=0;whiteSpace=wrap;html=1;fillColor=none;dashed=1;strokeWidth=2;" vertex="1" parent="1">
          <mxGeometry x="170" y="300" width="400" height="80" as="geometry" />
        </mxCell>
        <mxCell id="eVXDq6Tb_Z_STfx86WKF-11" value="内网逻辑切片" style="rounded=0;whiteSpace=wrap;html=1;strokeWidth=2;fillColor=none;fontSize=14;" vertex="1" parent="1">
          <mxGeometry x="200" y="322.5" width="120" height="35" as="geometry" />
        </mxCell>
        <mxCell id="eVXDq6Tb_Z_STfx86WKF-12" value="网络服务动态跃迁" style="rounded=0;whiteSpace=wrap;html=1;strokeWidth=2;fillColor=none;fontSize=14;" vertex="1" parent="1">
          <mxGeometry x="360" y="322.5" width="120" height="35" as="geometry" />
        </mxCell>
        <mxCell id="eVXDq6Tb_Z_STfx86WKF-13" value="支撑层" style="text;html=1;strokeColor=none;fillColor=none;align=center;verticalAlign=middle;whiteSpace=wrap;rounded=0;fontSize=14;" vertex="1" parent="1">
          <mxGeometry x="500" y="322.5" width="60" height="30" as="geometry" />
        </mxCell>
        <mxCell id="eVXDq6Tb_Z_STfx86WKF-14" value="" style="shape=flexArrow;endArrow=classic;html=1;rounded=0;fontSize=14;exitX=0.512;exitY=0.005;exitDx=0;exitDy=0;exitPerimeter=0;width=8.275862068965518;endSize=4.544827586206897;fillColor=#dae8fc;strokeColor=#6c8ebf;" edge="1" parent="1">
          <mxGeometry width="50" height="50" relative="1" as="geometry">
            <mxPoint x="372.79999999999995" y="300.4" as="sourcePoint" />
            <mxPoint x="373" y="270" as="targetPoint" />
          </mxGeometry>
        </mxCell>
        <mxCell id="eVXDq6Tb_Z_STfx86WKF-15" value="" style="shape=flexArrow;endArrow=classic;html=1;rounded=0;fontSize=14;entryX=1;entryY=0.5;entryDx=0;entryDy=0;exitX=0;exitY=0.5;exitDx=0;exitDy=0;width=9.523809523809524;endSize=6.223809523809524;" edge="1" parent="1" source="eVXDq6Tb_Z_STfx86WKF-8" target="eVXDq6Tb_Z_STfx86WKF-4">
          <mxGeometry width="50" height="50" relative="1" as="geometry">
            <mxPoint x="310" y="290" as="sourcePoint" />
            <mxPoint x="360" y="240" as="targetPoint" />
          </mxGeometry>
        </mxCell>
      </root>
    </mxGraphModel>
  </diagram>
</mxfile>
